<svg xmlns="http://www.w3.org/2000/svg" xmlns:xlink="http://www.w3.org/1999/xlink" width="645" height="645" viewBox="0 0 645 645"><defs><clipPath id="clip-path"><rect id="Rectangle_5699" data-name="Rectangle 5699" width="645" height="645" transform="translate(28 1487)" fill="none"></rect></clipPath><clipPath id="clip-path-2"><path id="Path_1554" data-name="Path 1554" d="M148.834,124.022l106.855-26.2L94.983,458.773,27.177,416.014,0,234Z" transform="matrix(0.914, -0.407, 0.407, 0.914, 1064.276, 257.251)" fill="#fff" stroke="#707070" stroke-width="1"></path></clipPath><clipPath id="clip-path-3"><path id="Path_1557" data-name="Path 1557" d="M-4.066,72.615l321.587,4.779L422.529,413.857S268.991,688.265,257.24,734.5a18.455,18.455,0,0,0,0,2.689l1.313,23.951H-2.481Z" transform="translate(644 -21.5)" fill="#fff" stroke="#707070" stroke-width="1"></path></clipPath></defs><g id="Mask_Group_116" data-name="Mask Group 116" transform="translate(-28 -1487)" clip-path="url(#clip-path)"><g id="Group_2210" data-name="Group 2210"><g id="Mask_Group_114" data-name="Mask Group 114" transform="translate(-674.484 1424.121)" opacity="0.75" clip-path="url(#clip-path-2)"><path id="Subtraction_220" data-name="Subtraction 220" d="M2226.971,17986.975c-169.556,0-307.5-137.947-307.5-307.5s137.944-307.5,307.5-307.5,307.5,137.943,307.5,307.5S2396.527,17986.975,2226.971,17986.975Zm0-571.91c-145.8,0-264.408,118.613-264.408,264.408s118.613,264.4,264.408,264.4,264.409-118.611,264.409-264.4S2372.766,17415.064,2226.971,17415.064Z" transform="translate(-1202.487 -17292.594)" fill="#cfecf4" opacity="0.73"></path></g><g id="Mask_Group_115" data-name="Mask Group 115" transform="translate(-704.449 1424.885)" opacity="0.75" clip-path="url(#clip-path-3)"><path id="Subtraction_221" data-name="Subtraction 221" d="M2181,17933.5c-165.421,0-300-134.58-300-300s134.579-300,300-300,300,134.578,300,300S2346.42,17933.5,2181,17933.5Zm0-566.287c-146.83,0-266.284,119.455-266.284,266.285s119.455,266.281,266.284,266.281,266.281-119.451,266.281-266.281S2327.828,17367.217,2181,17367.217Z" transform="translate(-1126.554 -17248.389)" fill="#cfecf4" opacity="0.73"></path></g></g></g></svg>