<svg xmlns="http://www.w3.org/2000/svg" xmlns:xlink="http://www.w3.org/1999/xlink" width="645" height="645" viewBox="0 0 645 645"><defs><linearGradient id="linear-gradient" x1="0.905" y1="0.091" x2="0.157" y2="0.886" gradientUnits="objectBoundingBox"><stop offset="0" stop-color="#fff" stop-opacity="0.867"></stop><stop offset="1" stop-color="#fff" stop-opacity="0"></stop></linearGradient><filter id="Ellipse_397" x="497.094" y="465.944" width="89.811" height="89.811" filterUnits="userSpaceOnUse"><feGaussianBlur stdDeviation="3"></feGaussianBlur></filter><filter id="Ellipse_401" x="470.012" y="77.726" width="76.57" height="76.569" filterUnits="userSpaceOnUse"><feGaussianBlur stdDeviation="3"></feGaussianBlur></filter></defs><g id="Group_2241" data-name="Group 2241" transform="translate(-28 -2317)"><rect id="Rectangle_5713" data-name="Rectangle 5713" width="645" height="645" transform="translate(28 2317)" fill="none"></rect><g id="Group_2231" data-name="Group 2231" transform="translate(-698.967 2246.5)"><circle id="Ellipse_392" data-name="Ellipse 392" cx="13.484" cy="13.484" r="13.484" transform="translate(741.777 637.049)" fill="#cfecf4"></circle><g id="Group_2235" data-name="Group 2235" transform="translate(-3.331 82.848)"><g id="Group_2234" data-name="Group 2234" transform="translate(1227.594 450.797)"><g id="Group_2233" data-name="Group 2233" transform="translate(0 0)"><g id="Group_2232" data-name="Group 2232"><ellipse id="Ellipse_395" data-name="Ellipse 395" cx="44.703" cy="44.703" rx="44.703" ry="44.703" fill="url(#linear-gradient)"></ellipse><g id="Ellipse_396" data-name="Ellipse 396" fill="none" stroke="#fff" stroke-width="1"><ellipse cx="44.703" cy="44.703" rx="44.703" ry="44.703" stroke="none"></ellipse><ellipse cx="44.703" cy="44.703" rx="44.203" ry="44.203" fill="none"></ellipse></g></g><g transform="matrix(1, 0, 0, 1, -497.3, -463.14)" filter="url(#Ellipse_397)"><ellipse id="Ellipse_397-2" data-name="Ellipse 397" cx="35.906" cy="35.905" rx="35.906" ry="35.905" transform="translate(506.09 471.94)" fill="#fff"></ellipse></g><ellipse id="Ellipse_398" data-name="Ellipse 398" cx="27.233" cy="27.233" rx="27.233" ry="27.233" transform="translate(17.47 17.472)" fill="#cfecf4"></ellipse></g></g><path id="Path_1580" data-name="Path 1580" d="M36.5,24.98H31.9v-4.6A1.384,1.384,0,0,0,30.516,19H26.364a1.384,1.384,0,0,0-1.384,1.384v4.6h-4.6A1.384,1.384,0,0,0,19,26.364v4.152A1.384,1.384,0,0,0,20.384,31.9h4.6v4.6a1.384,1.384,0,0,0,1.384,1.384h4.152A1.384,1.384,0,0,0,31.9,36.5V31.9h4.6a1.384,1.384,0,0,0,1.384-1.384V26.364A1.384,1.384,0,0,0,36.5,24.98Z" transform="translate(1243.857 467.06)" fill="#fff"></path></g><g id="Group_2240" data-name="Group 2240" transform="translate(-28.791 -303.748)"><g id="Group_2238" data-name="Group 2238" transform="translate(1227.594 450.797)"><g id="Group_2237" data-name="Group 2237" transform="translate(0 0)"><g id="Group_2236" data-name="Group 2236"><ellipse id="Ellipse_399" data-name="Ellipse 399" cx="36.46" cy="36.46" rx="36.46" ry="36.46" fill="url(#linear-gradient)"></ellipse><g id="Ellipse_400" data-name="Ellipse 400" fill="none" stroke="#fff" stroke-width="1"><ellipse cx="36.46" cy="36.46" rx="36.46" ry="36.46" stroke="none"></ellipse><ellipse cx="36.46" cy="36.46" rx="35.96" ry="35.96" fill="none"></ellipse></g></g><g transform="matrix(1, 0, 0, 1, -471.84, -76.55)" filter="url(#Ellipse_401)"><ellipse id="Ellipse_401-2" data-name="Ellipse 401" cx="29.285" cy="29.284" rx="29.285" ry="29.284" transform="translate(479.01 83.73)" fill="#fff"></ellipse></g><ellipse id="Ellipse_402" data-name="Ellipse 402" cx="22.211" cy="22.211" rx="22.211" ry="22.211" transform="translate(14.249 14.25)" fill="#cfecf4"></ellipse></g></g><g id="Group_2239" data-name="Group 2239" transform="translate(1252.408 475.602)"><path id="Rectangle_5716" data-name="Rectangle 5716" d="M0,0H8.521a0,0,0,0,1,0,0V7.157a4.261,4.261,0,0,1-4.261,4.261h0A4.261,4.261,0,0,1,0,7.157V0A0,0,0,0,1,0,0Z" transform="translate(8.073 9.209) rotate(45)" fill="#fff"></path><path id="Rectangle_5717" data-name="Rectangle 5717" d="M0,0H8.521a0,0,0,0,1,0,0V7.157a4.261,4.261,0,0,1-4.261,4.261h0A4.261,4.261,0,0,1,0,7.157V0A0,0,0,0,1,0,0Z" transform="translate(15.218 14.099) rotate(-135)" fill="#fff"></path></g></g></g></g></svg>