<svg xmlns="http://www.w3.org/2000/svg" xmlns:xlink="http://www.w3.org/1999/xlink" width="500" zoomAndPan="magnify" viewBox="0 0 375 374.999991" height="500" preserveAspectRatio="xMidYMid meet" version="1.0"><defs><clipPath id="id1"><path d="M 67.464844 67.464844 L 307.464844 67.464844 L 307.464844 307.464844 L 67.464844 307.464844 Z M 67.464844 67.464844 " clip-rule="nonzero"/></clipPath></defs><g clip-path="url(#id1)"><path fill="#0a67a9" d="M 250.140625 207.628906 L 207.121094 207.628906 L 207.121094 250.652344 L 166.847656 250.652344 L 166.847656 207.628906 L 123.824219 207.628906 L 123.824219 167.347656 L 166.847656 167.347656 L 166.847656 124.328125 L 207.121094 124.328125 L 207.121094 167.347656 L 250.140625 167.347656 Z M 187.480469 67.464844 C 121.179688 67.464844 67.464844 121.207031 67.464844 187.488281 C 67.464844 253.769531 121.179688 307.507812 187.480469 307.507812 C 253.761719 307.507812 307.496094 253.769531 307.496094 187.488281 C 307.496094 121.207031 253.761719 67.464844 187.480469 67.464844 " fill-opacity="1" fill-rule="nonzero"/></g></svg>